<svg width="20" height="20" viewBox="0 0 20 20" fill="none" xmlns="http://www.w3.org/2000/svg">
<g id="bxl-instagram 1">
<path id="Vector" d="M9.99898 6.14746C7.87065 6.14746 6.14648 7.87246 6.14648 9.99996C6.14648 12.1283 7.87065 13.8533 9.99898 13.8533C12.1257 13.8533 13.8515 12.1283 13.8515 9.99996C13.8515 7.87246 12.1257 6.14746 9.99898 6.14746ZM9.99898 12.5033C8.61648 12.5033 7.49565 11.3825 7.49565 10.0008C7.49565 8.61829 8.61648 7.49829 9.99898 7.49829C11.3815 7.49829 12.5007 8.61829 12.5007 10.0008C12.5007 11.3825 11.3815 12.5033 9.99898 12.5033Z" fill="#FF5029"/>
<path id="Vector_2" d="M14.0048 6.90409C14.5009 6.90409 14.9031 6.50189 14.9031 6.00575C14.9031 5.50962 14.5009 5.10742 14.0048 5.10742C13.5086 5.10742 13.1064 5.50962 13.1064 6.00575C13.1064 6.50189 13.5086 6.90409 14.0048 6.90409Z" fill="#FF5029"/>
<path id="Vector_3" d="M17.1106 5.09273C16.7198 4.08523 15.924 3.28856 14.9165 2.89939C14.334 2.68023 13.7181 2.56273 13.0948 2.54939C12.2923 2.51439 12.0381 2.50439 10.0031 2.50439C7.96813 2.50439 7.7073 2.50439 6.91146 2.54939C6.2898 2.56189 5.67396 2.67939 5.09146 2.89939C4.08313 3.28856 3.2873 4.08523 2.8973 5.09273C2.67813 5.67606 2.56063 6.29106 2.54813 6.91439C2.5123 7.71606 2.50146 7.97023 2.50146 10.0061C2.50146 12.0411 2.50146 12.3002 2.54813 13.0977C2.56063 13.7211 2.67813 14.3361 2.8973 14.9202C3.28813 15.9269 4.08396 16.7236 5.0923 17.1136C5.6723 17.3402 6.28813 17.4686 6.91313 17.4886C7.71563 17.5236 7.9698 17.5344 10.0048 17.5344C12.0398 17.5344 12.3006 17.5344 13.0965 17.4886C13.719 17.4761 14.3348 17.3577 14.9181 17.1394C15.9256 16.7486 16.7215 15.9527 17.1123 14.9452C17.3315 14.3619 17.449 13.7469 17.4615 13.1236C17.4973 12.3219 17.5081 12.0677 17.5081 10.0319C17.5081 7.99606 17.5081 7.73773 17.4615 6.94023C17.4506 6.30856 17.334 5.68273 17.1106 5.09273ZM16.0956 13.0361C16.0898 13.5161 16.0031 13.9919 15.8365 14.4427C15.5823 15.0986 15.0648 15.6169 14.4098 15.8686C13.964 16.0344 13.494 16.1211 13.0181 16.1277C12.2265 16.1644 12.0031 16.1736 9.97313 16.1736C7.94147 16.1736 7.73396 16.1736 6.9273 16.1277C6.45313 16.1219 5.98146 16.0344 5.53646 15.8686C4.87896 15.6177 4.35813 15.0994 4.10396 14.4427C3.94063 13.9977 3.8523 13.5269 3.8448 13.0519C3.80896 12.2602 3.80063 12.0369 3.80063 10.0069C3.80063 7.97606 3.80063 7.76856 3.8448 6.96106C3.85063 6.48106 3.9373 6.00606 4.10396 5.55523C4.35813 4.89773 4.87896 4.38023 5.53646 4.12856C5.98146 3.96356 6.45313 3.87606 6.9273 3.86939C7.7198 3.83356 7.9423 3.82356 9.97313 3.82356C12.004 3.82356 12.2123 3.82356 13.0181 3.86939C13.494 3.87523 13.964 3.96273 14.4098 4.12856C15.0648 4.38106 15.5823 4.89939 15.8365 5.55523C15.9998 6.00023 16.0881 6.47106 16.0956 6.94606C16.1315 7.73856 16.1406 7.96106 16.1406 9.99189C16.1406 12.0219 16.1406 12.2402 16.1048 13.0369H16.0956V13.0361Z" fill="#FF5029"/>
</g>
</svg>
